<svg width="221" height="221" viewBox="0 0 221 221" fill="none" xmlns="http://www.w3.org/2000/svg">
<path d="M220.468 110.567C220.468 171.347 171.234 220.619 110.5 220.619C49.7661 220.619 0.531509 171.347 0.531509 110.567C0.531509 49.786 49.7661 0.513672 110.5 0.513672C171.234 0.513672 220.468 49.786 220.468 110.567Z" fill="#8559E4"/>
<path fill-rule="evenodd" clip-rule="evenodd" d="M90.7753 67.727C103.44 60.9823 119.006 61.1001 131.552 68.0358C143.974 75.1127 151.524 87.743 151.453 101.33C151.164 114.827 143.069 127.515 132.949 137.323C127.108 143.009 120.575 148.038 113.481 152.305C112.751 152.692 111.95 152.951 111.12 153.07C110.321 153.039 109.542 152.822 108.855 152.44C98.0255 146.028 88.5247 137.843 80.8096 128.279C74.3539 120.296 70.6862 110.651 70.3046 100.655C70.2962 87.042 78.111 74.4717 90.7753 67.727ZM98.0955 106.289C100.226 111.102 105.254 114.242 110.833 114.242C114.487 114.266 118.001 112.925 120.589 110.516C123.178 108.107 124.628 104.832 124.615 101.42C124.634 96.2113 121.289 91.5055 116.14 89.4997C110.992 87.4938 105.056 88.5836 101.105 92.2601C97.1532 95.9366 95.9652 101.475 98.0955 106.289Z" fill="white"/>
<path opacity="0.4" d="M140.403 172.044C140.403 174.979 127.427 177.357 111.421 177.357C95.4147 177.357 82.439 174.979 82.439 172.044C82.439 169.11 95.4147 166.731 111.421 166.731C127.427 166.731 140.403 169.11 140.403 172.044Z" fill="white"/>
</svg>
