<svg width="148" height="147" viewBox="0 0 148 147" fill="none" xmlns="http://www.w3.org/2000/svg">
<ellipse cx="74" cy="73.5" rx="74" ry="73.5" fill="#8559E4"/>
<path fill-rule="evenodd" clip-rule="evenodd" d="M60.4815 37.1224C69.1777 32.572 79.8668 32.6516 88.4814 37.3308C97.0113 42.1053 102.196 50.6264 102.147 59.7927C101.949 68.899 96.3898 77.4588 89.441 84.076C85.4304 87.9124 80.9438 91.3048 76.0729 94.1839C75.5713 94.4451 75.0218 94.62 74.4515 94.6999C73.9027 94.6788 73.3682 94.5328 72.8963 94.2749C65.46 89.949 58.936 84.427 53.6383 77.9748C49.2054 72.5889 46.6869 66.0818 46.4249 59.3374C46.4191 50.1535 51.7853 41.6729 60.4815 37.1224ZM65.5081 63.1386C66.9709 66.3863 70.4238 68.5048 74.2544 68.5048C76.764 68.521 79.1763 67.6158 80.954 65.9908C82.7316 64.3658 83.7269 62.156 83.718 59.8539C83.7314 56.3399 81.4342 53.1651 77.899 51.8118C74.3637 50.4586 70.2879 51.1938 67.5745 53.6742C64.8611 56.1546 64.0453 59.891 65.5081 63.1386Z" fill="white"/>
<path opacity="0.4" d="M94.5595 107.501C94.5595 109.481 85.6495 111.085 74.6584 111.085C63.6673 111.085 54.7573 109.481 54.7573 107.501C54.7573 105.521 63.6673 103.917 74.6584 103.917C85.6495 103.917 94.5595 105.521 94.5595 107.501Z" fill="white"/>
</svg>
